<?xml version="1.0" encoding="UTF-8" standalone="no"?>
<!-- Created with Inkscape (http://www.inkscape.org/) -->

<svg
   width="111.20538mm"
   height="111.20538mm"
   viewBox="0 0 111.20537 111.20538"
   version="1.1"
   id="svg5"
   xml:space="preserve"
   inkscape:version="1.2.2 (b0a8486541, 2022-12-01)"
   sodipodi:docname="github.svg"
   xmlns:inkscape="http://www.inkscape.org/namespaces/inkscape"
   xmlns:sodipodi="http://sodipodi.sourceforge.net/DTD/sodipodi-0.dtd"
   xmlns="http://www.w3.org/2000/svg"
   xmlns:svg="http://www.w3.org/2000/svg"><sodipodi:namedview
     id="namedview7"
     pagecolor="#ffffff"
     bordercolor="#666666"
     borderopacity="1.0"
     inkscape:showpageshadow="2"
     inkscape:pageopacity="0.0"
     inkscape:pagecheckerboard="0"
     inkscape:deskcolor="#d1d1d1"
     inkscape:document-units="mm"
     showgrid="false"
     inkscape:zoom="0.7968268"
     inkscape:cx="80.318584"
     inkscape:cy="277.35011"
     inkscape:window-width="1851"
     inkscape:window-height="1015"
     inkscape:window-x="69"
     inkscape:window-y="28"
     inkscape:window-maximized="1"
     inkscape:current-layer="g3399" /><defs
     id="defs2"><clipPath
       id="clipPath8"><path
         d="M 76,2 V 48 H 54 V 71 H 35.580737 c -0.07818,0.665694 -0.141485,1.332869 -0.205737,2 -1.151162,12.530963 1.036422,24.087546 6.0625,33.96875 L 43.125,110 c 1.011403,1.81678 2.191241,3.52297 3.4375,5.1875 1.244725,1.66248 1.685716,2.58262 2.46875,3.6875 C 62.319911,133.81083 82.129473,141 105,141 155.64836,141 198.63299,118.56201 217.65625,68.15625 231.15302,69.54122 244.09968,66.080358 250,54.5625 240.60137,49.138835 228.52163,50.877226 221.5625,54.375 L 240,2 168,48 H 145 V 2 Z"
         id="path10" /></clipPath><clipPath
       id="clipPath1047"><path
         d="M 76,2 V 48 H 54 V 71 H 35.580737 c -0.07818,0.665694 -0.141485,1.332869 -0.205737,2 -1.151162,12.530963 1.036422,24.087546 6.0625,33.96875 L 43.125,110 c 1.011403,1.81678 2.191241,3.52297 3.4375,5.1875 1.244725,1.66248 1.685716,2.58262 2.46875,3.6875 C 62.319911,133.81083 82.129473,141 105,141 155.64836,141 198.63299,118.56201 217.65625,68.15625 231.15302,69.54122 244.09968,66.080358 250,54.5625 240.60137,49.138835 228.52163,50.877226 221.5625,54.375 L 240,2 168,48 H 145 V 2 Z"
         id="path1045" /></clipPath><clipPath
       id="clipPath1051"><path
         d="M 76,2 V 48 H 54 V 71 H 35.580737 c -0.07818,0.665694 -0.141485,1.332869 -0.205737,2 -1.151162,12.530963 1.036422,24.087546 6.0625,33.96875 L 43.125,110 c 1.011403,1.81678 2.191241,3.52297 3.4375,5.1875 1.244725,1.66248 1.685716,2.58262 2.46875,3.6875 C 62.319911,133.81083 82.129473,141 105,141 155.64836,141 198.63299,118.56201 217.65625,68.15625 231.15302,69.54122 244.09968,66.080358 250,54.5625 240.60137,49.138835 228.52163,50.877226 221.5625,54.375 L 240,2 168,48 H 145 V 2 Z"
         id="path1049" /></clipPath><clipPath
       id="clipPath1055"><path
         d="M 76,2 V 48 H 54 V 71 H 35.580737 c -0.07818,0.665694 -0.141485,1.332869 -0.205737,2 -1.151162,12.530963 1.036422,24.087546 6.0625,33.96875 L 43.125,110 c 1.011403,1.81678 2.191241,3.52297 3.4375,5.1875 1.244725,1.66248 1.685716,2.58262 2.46875,3.6875 C 62.319911,133.81083 82.129473,141 105,141 155.64836,141 198.63299,118.56201 217.65625,68.15625 231.15302,69.54122 244.09968,66.080358 250,54.5625 240.60137,49.138835 228.52163,50.877226 221.5625,54.375 L 240,2 168,48 H 145 V 2 Z"
         id="path1053" /></clipPath><clipPath
       id="clipPath1059"><path
         d="M 76,2 V 48 H 54 V 71 H 35.580737 c -0.07818,0.665694 -0.141485,1.332869 -0.205737,2 -1.151162,12.530963 1.036422,24.087546 6.0625,33.96875 L 43.125,110 c 1.011403,1.81678 2.191241,3.52297 3.4375,5.1875 1.244725,1.66248 1.685716,2.58262 2.46875,3.6875 C 62.319911,133.81083 82.129473,141 105,141 155.64836,141 198.63299,118.56201 217.65625,68.15625 231.15302,69.54122 244.09968,66.080358 250,54.5625 240.60137,49.138835 228.52163,50.877226 221.5625,54.375 L 240,2 168,48 H 145 V 2 Z"
         id="path1057" /></clipPath></defs><g
     inkscape:label="Ebene 1"
     inkscape:groupmode="layer"
     id="layer1"
     transform="translate(227.0679,324.54789)"><g
       id="g3399"
       transform="matrix(1.8289309,0,0,1.8289309,-143.04618,57.998478)"><path
         class="st1"
         d="m -15.538606,-198.42079 c -11.138958,0 -20.161249,9.02229 -20.161249,20.16125 0,8.91646 5.767916,16.45709 13.784791,19.12938 1.005417,0.15875 1.402292,-0.42334 1.402292,-0.9525 0,-0.47625 -0.02646,-2.06375 -0.02646,-3.75709 -5.053541,0.92605 -6.376458,-1.24354 -6.773333,-2.35479 -0.238125,-0.58208 -1.217083,-2.38125 -2.06375,-2.8575 -0.714375,-0.37041 -1.719791,-1.32291 -0.02646,-1.34937 1.5875,-0.0265 2.725208,1.45521 3.095625,2.06375 1.825625,3.04271 4.709583,2.19604 5.87375,1.66687 0.185208,-1.29646 0.714375,-2.19604 1.296458,-2.69875 -4.471458,-0.50271 -9.181041,-2.24896 -9.181041,-9.94833 0,-2.19604 0.793749,-4.02167 2.063749,-5.42396 -0.211666,-0.50271 -0.899583,-2.56646 0.211667,-5.34458 0,0 1.693333,-0.52917 5.55625,2.06375 1.613958,-0.44979 3.33375,-0.68792 5.027083,-0.68792 1.719792,0 3.413125,0.23813 5.027084,0.68792 3.8629162,-2.61938 5.5297912,-2.06375 5.5297912,-2.06375 1.11125,2.77812 0.396875,4.84187 0.2116667,5.34458 1.2964583,1.40229 2.0637499,3.20146 2.0637499,5.42396 0,7.72583 -4.7095832,9.44562 -9.2074998,9.94833 0.740833,0.635 1.375833,1.82563 1.375833,3.73063 0,2.69875 -0.02646,4.86833 -0.02646,5.52979 0,0.52917 0.370417,1.16417 1.3758333,0.9525 8.20208319,-2.77813 13.7318748,-10.4775 13.7318748,-19.12938 0,-11.1125 -9.0222916,-20.13479 -20.1612501,-20.13479 z m 0,0"
         id="path1270"
         style="clip-rule:evenodd;fill:#24292e;fill-rule:evenodd;stroke-width:0.264583" /><rect
         style="fill:none;stroke-width:1.89455;stroke-linecap:round;stroke-linejoin:round;paint-order:fill markers stroke"
         id="rect622"
         width="60.803486"
         height="60.803486"
         x="-45.94035"
         y="-209.16393" /></g></g></svg>
